<?xml version="1.0" encoding="UTF-8" standalone="no"?>
<svg xmlns="http://www.w3.org/2000/svg" width="128" height="128" viewBox="0 0 128 128">
  <defs>
    <linearGradient id="gradient" x1="0%" y1="0%" x2="100%" y2="100%">
      <stop offset="0%" style="stop-color:#0056b3;stop-opacity:1" />
      <stop offset="100%" style="stop-color:#17a2b8;stop-opacity:1" />
    </linearGradient>
  </defs>
  <rect x="8" y="8" width="112" height="112" rx="12" ry="12" fill="url(#gradient)" />
  <g transform="translate(24, 24)">
    <!-- JP2 Text -->
    <text x="40" y="56" font-family="Arial, sans-serif" font-weight="bold" font-size="42" fill="white" text-anchor="middle">JP2</text>
    
    <!-- Gear symbol representing "forge" -->
    <g fill="white" transform="translate(40, 40) scale(0.8)">
      <path d="M36.2,35.2C36.2,30.9,32.7,27.4,28.4,27.4C24.1,27.4,20.6,30.9,20.6,35.2C20.6,39.5,24.1,43,28.4,43C32.7,43,36.2,39.5,36.2,35.2ZM50,35C50,39.9,47.3,44.2,43.3,46.5L45.8,55.3C46,56.1,45.5,56.9,44.7,57.1L38.9,58.4C38.5,58.5,38.1,58.4,37.8,58.2C37.5,58,37.2,57.6,37.1,57.2L34.8,49.2C33.4,49.5,32,49.6,30.5,49.6C29,49.6,27.6,49.5,26.2,49.2L23.9,57.2C23.8,57.6,23.5,58,23.2,58.2C22.9,58.4,22.5,58.5,22.1,58.4L16.3,57.1C15.5,56.9,15,56.1,15.2,55.3L17.7,46.5C13.7,44.2,11,39.9,11,35C11,30.1,13.7,25.8,17.7,23.5L15.2,14.7C15,13.9,15.5,13.1,16.3,12.9L22.1,11.6C22.5,11.5,22.9,11.6,23.2,11.8C23.5,12,23.8,12.4,23.9,12.8L26.2,20.8C27.6,20.5,29,20.4,30.5,20.4C32,20.4,33.4,20.5,34.8,20.8L37.1,12.8C37.2,12.4,37.5,12,37.8,11.8C38.1,11.6,38.5,11.5,38.9,11.6L44.7,12.9C45.5,13.1,46,13.9,45.8,14.7L43.3,23.5C47.3,25.8,50,30.1,50,35Z" />
    </g>
  </g>
</svg>
